<svg width="210" height="72" viewBox="0 0 210 72" fill="none" xmlns="http://www.w3.org/2000/svg">
<path d="M8.72 44.56C7.73333 44.56 6.86667 44.48 6.12 44.32C5.37333 44.16 4.72 43.7733 4.16 43.16C3.62667 42.5467 3.36 41.6 3.36 40.32C3.36 38.5333 3.89333 36.1333 4.96 33.12C6.05333 30.1067 7.48 27.08 9.24 24.04C7.90667 24.12 6.85333 24.32 6.08 24.64C5.30667 24.96 4.8 25.4533 4.56 26.12C4.66667 26.12 4.77333 26.2533 4.88 26.52C5.01333 26.7867 5.08 27.0667 5.08 27.36C5.08 27.84 4.86667 28.2267 4.44 28.52C4.01333 28.7867 3.48 28.92 2.84 28.92C2.09333 28.92 1.49333 28.72 1.04 28.32C0.586667 27.92 0.36 27.3467 0.36 26.6C0.36 25.6933 0.706667 24.8667 1.4 24.12C2.12 23.3733 3.10667 22.7867 4.36 22.36C5.61333 21.9067 7 21.68 8.52 21.68C9.08 21.68 9.77333 21.72 10.6 21.8C12.7867 18.3333 15.0933 15.5067 17.52 13.32C19.9733 11.1067 22.3067 10 24.52 10C25.8 10 26.8533 10.1867 27.68 10.56L21.4 40H15.64L18.72 25.48C17.7333 25.0267 16.8267 24.6933 16 24.48C15.1733 24.2667 14.2933 24.12 13.36 24.04C11.84 27.32 10.5867 30.68 9.6 34.12C8.64 37.5333 8.16 40.2667 8.16 42.32C8.16 43.3333 8.34667 44.08 8.72 44.56ZM21.4 12.84C20.2533 13.4533 19.0533 14.6 17.8 16.28C16.5733 17.9333 15.3733 19.9467 14.2 22.32C16.12 22.6933 17.7467 23.16 19.08 23.72L21.4 12.84ZM41.1588 40.24C39.5321 40.24 38.3321 39.8133 37.5588 38.96C36.8121 38.08 36.4388 37 36.4388 35.72C36.4388 35.16 36.5054 34.5333 36.6388 33.84C36.7721 33.12 36.9054 32.4267 37.0388 31.76C37.1988 31.0933 37.3054 30.6667 37.3588 30.48C37.5721 29.5467 37.7721 28.6267 37.9588 27.72C38.1454 26.8133 38.2388 26.08 38.2388 25.52C38.2388 24.16 37.7588 23.48 36.7988 23.48C36.1054 23.48 35.4921 23.8267 34.9588 24.52C34.4254 25.1867 33.9988 26.0667 33.6788 27.16L30.9588 40H25.1987L29.4388 20H35.1988L34.7588 22.08C36.0921 20.5867 37.6521 19.84 39.4388 19.84C40.7988 19.84 41.8788 20.2133 42.6788 20.96C43.4788 21.7067 43.8788 22.84 43.8788 24.36C43.8788 25.1333 43.7854 26 43.5988 26.96C43.4121 27.8933 43.1454 29.04 42.7988 30.4C42.5854 31.2267 42.3854 32.04 42.1988 32.84C42.0388 33.6133 41.9588 34.2267 41.9588 34.68C41.9588 35.2133 42.0788 35.6267 42.3188 35.92C42.5588 36.2133 42.9721 36.36 43.5588 36.36C44.3588 36.36 44.9988 36.08 45.4788 35.52C45.9588 34.9333 46.4388 34.04 46.9187 32.84H48.5988C47.6121 35.7733 46.4654 37.7467 45.1588 38.76C43.8788 39.7467 42.5454 40.24 41.1588 40.24ZM61.3541 40.24C59.7274 40.24 58.5274 39.8133 57.7541 38.96C57.0074 38.08 56.6341 37 56.6341 35.72C56.6341 35.16 56.7007 34.5333 56.8341 33.84C56.9674 33.12 57.1007 32.4267 57.2341 31.76C57.3941 31.0933 57.5007 30.6667 57.5541 30.48C57.7674 29.5467 57.9674 28.6267 58.1541 27.72C58.3407 26.8133 58.4341 26.08 58.4341 25.52C58.4341 24.16 57.9541 23.48 56.9941 23.48C56.3007 23.48 55.6874 23.8267 55.1541 24.52C54.6207 25.1867 54.1941 26.0667 53.8741 27.16L51.1541 40H45.3941L49.6341 20H55.3941L54.9541 22.08C56.2874 20.5867 57.8474 19.84 59.6341 19.84C60.9941 19.84 62.0741 20.2133 62.8741 20.96C63.6741 21.7067 64.0741 22.84 64.0741 24.36C64.0741 25.1333 63.9807 26 63.7941 26.96C63.6074 27.8933 63.3407 29.04 62.9941 30.4C62.7807 31.2267 62.5807 32.04 62.3941 32.84C62.2341 33.6133 62.1541 34.2267 62.1541 34.68C62.1541 35.2133 62.2741 35.6267 62.5141 35.92C62.7541 36.2133 63.1674 36.36 63.7541 36.36C64.5541 36.36 65.1941 36.08 65.6741 35.52C66.1541 34.9333 66.6341 34.04 67.1141 32.84H68.7941C67.8074 35.7733 66.6607 37.7467 65.3541 38.76C64.0741 39.7467 62.7407 40.24 61.3541 40.24ZM71.9094 40.24C70.3894 40.24 69.1227 39.72 68.1094 38.68C67.096 37.64 66.5894 36.0133 66.5894 33.8C66.5894 31.8267 66.976 29.76 67.7494 27.6C68.5494 25.4133 69.7227 23.5733 71.2694 22.08C72.8427 20.56 74.7094 19.8 76.8694 19.8C77.9627 19.8 78.776 19.9867 79.3094 20.36C79.8427 20.7333 80.1094 21.2267 80.1094 21.84V22.12L80.5494 20H86.3094L83.4294 33.6C83.3227 34 83.2694 34.4267 83.2694 34.88C83.2694 35.4133 83.3894 35.8 83.6294 36.04C83.896 36.2533 84.3227 36.36 84.9094 36.36C85.2827 36.36 85.576 36.3067 85.7894 36.2C85.2027 37.6933 84.6427 38.7467 84.1094 39.36C83.576 39.9467 82.8027 40.24 81.7894 40.24C80.696 40.24 79.8027 39.92 79.1094 39.28C78.4427 38.6133 78.0294 37.6933 77.8694 36.52C76.2427 39 74.256 40.24 71.9094 40.24ZM74.5094 36.36C75.176 36.36 75.8294 36.0533 76.4694 35.44C77.136 34.8 77.5894 33.9333 77.8294 32.84L79.7494 23.8C79.7494 23.4533 79.616 23.12 79.3494 22.8C79.0827 22.4533 78.6694 22.28 78.1094 22.28C77.0427 22.28 76.0827 22.9067 75.2294 24.16C74.376 25.3867 73.7094 26.88 73.2294 28.64C72.7494 30.3733 72.5094 31.9067 72.5094 33.24C72.5094 34.5733 72.696 35.4267 73.0694 35.8C73.4694 36.1733 73.9494 36.36 74.5094 36.36ZM103.653 14.56L109.573 13.76L106.733 27.12C108.013 27.0133 109.186 26.4533 110.253 25.44C111.346 24.4267 112.2 23.1733 112.813 21.68C113.426 20.1867 113.733 18.72 113.733 17.28C113.733 15.68 113.32 14.3733 112.493 13.36C111.666 12.3467 110.426 11.84 108.773 11.84C105.52 11.84 102.973 12.6933 101.133 14.4C99.3198 16.1067 98.4131 18.4933 98.4131 21.56C98.4131 22.5467 98.5065 23.24 98.6931 23.64C98.8798 24.0133 98.9731 24.2267 98.9731 24.28C97.5331 24.28 96.4531 23.9867 95.7331 23.4C95.0398 22.7867 94.6931 21.7867 94.6931 20.4C94.6931 18.6933 95.3865 17.04 96.7731 15.44C98.1865 13.8133 99.9865 12.5067 102.173 11.52C104.36 10.5067 106.546 10 108.733 10C110.84 10 112.6 10.36 114.013 11.08C115.426 11.8 116.466 12.76 117.133 13.96C117.826 15.1333 118.173 16.44 118.173 17.88C118.173 19.6133 117.693 21.3067 116.733 22.96C115.8 24.6133 114.453 25.9733 112.693 27.04C110.933 28.08 108.906 28.6 106.613 28.6H106.413L103.973 40H98.2131L103.653 14.56ZM122.183 40.24C120.663 40.24 119.396 39.72 118.383 38.68C117.369 37.64 116.863 36.0133 116.863 33.8C116.863 31.8267 117.249 29.76 118.023 27.6C118.823 25.4133 119.996 23.5733 121.543 22.08C123.116 20.56 124.983 19.8 127.143 19.8C128.236 19.8 129.049 19.9867 129.583 20.36C130.116 20.7333 130.383 21.2267 130.383 21.84V22.12L130.823 20H136.583L133.703 33.6C133.596 34 133.543 34.4267 133.543 34.88C133.543 35.4133 133.663 35.8 133.903 36.04C134.169 36.2533 134.596 36.36 135.183 36.36C135.556 36.36 135.849 36.3067 136.063 36.2C135.476 37.6933 134.916 38.7467 134.383 39.36C133.849 39.9467 133.076 40.24 132.063 40.24C130.969 40.24 130.076 39.92 129.383 39.28C128.716 38.6133 128.303 37.6933 128.143 36.52C126.516 39 124.529 40.24 122.183 40.24ZM146.703 22.16H144.463C143.716 22.16 143.156 22.2 142.783 22.28C142.436 22.36 142.263 22.5333 142.263 22.8C142.263 22.8533 142.329 22.92 142.463 23C142.623 23.0533 142.703 23.28 142.703 23.68C142.703 24.3733 142.489 24.9067 142.063 25.28C141.636 25.6267 141.129 25.8 140.543 25.8C140.036 25.8 139.596 25.6533 139.223 25.36C138.876 25.04 138.703 24.6 138.703 24.04C138.703 23.48 138.889 22.88 139.263 22.24C139.663 21.6 140.209 21.0667 140.903 20.64C141.623 20.2133 142.436 20 143.343 20H153.623L143.823 36.92C143.983 36.92 144.276 36.9467 144.703 37C145.609 37.1067 146.329 37.16 146.863 37.16C148.009 37.16 148.636 36.8933 148.743 36.36C148.503 36.3333 148.316 36.2533 148.183 36.12C148.049 35.96 147.983 35.76 147.983 35.52C147.983 35.0933 148.183 34.7067 148.583 34.36C148.983 33.9867 149.529 33.8 150.223 33.8C150.809 33.8 151.249 33.9733 151.543 34.32C151.836 34.6667 151.983 35.1333 151.983 35.72C151.983 36.36 151.783 37.0133 151.383 37.68C150.983 38.3467 150.409 38.9067 149.663 39.36C148.916 39.7867 148.063 40 147.103 40H136.503L146.703 22.16ZM124.783 36.36C125.449 36.36 126.103 36.0533 126.743 35.44C127.409 34.8 127.863 33.9333 128.103 32.84L130.023 23.8C130.023 23.4533 129.889 23.12 129.623 22.8C129.356 22.4533 128.943 22.28 128.383 22.28C127.316 22.28 126.356 22.9067 125.503 24.16C124.649 25.3867 123.983 26.88 123.503 28.64C123.023 30.3733 122.783 31.9067 122.783 33.24C122.783 34.5733 122.969 35.4267 123.343 35.8C123.743 36.1733 124.223 36.36 124.783 36.36ZM158.433 40.24C156.913 40.24 155.646 39.72 154.633 38.68C153.619 37.64 153.113 36.0133 153.113 33.8C153.113 31.8267 153.499 29.76 154.273 27.6C155.073 25.4133 156.246 23.5733 157.793 22.08C159.366 20.56 161.233 19.8 163.393 19.8C164.486 19.8 165.299 19.9867 165.833 20.36C166.366 20.7333 166.633 21.2267 166.633 21.84V22L168.593 12.8L174.513 12L169.913 33.6C169.806 34 169.753 34.4267 169.753 34.88C169.753 35.4133 169.873 35.8 170.113 36.04C170.379 36.2533 170.806 36.36 171.393 36.36C172.139 36.36 172.779 36.04 173.313 35.4C173.873 34.76 174.313 33.9067 174.633 32.84H176.313C174.686 37.6133 172.006 40 168.273 40C167.179 40 166.286 39.7067 165.593 39.12C164.926 38.5333 164.513 37.68 164.353 36.56C163.659 37.6267 162.819 38.5067 161.833 39.2C160.873 39.8933 159.739 40.24 158.433 40.24ZM161.033 36.36C161.673 36.36 162.313 36.0667 162.953 35.48C163.619 34.8933 164.073 34.08 164.313 33.04V32.84L166.273 23.68C166.033 22.7467 165.486 22.28 164.633 22.28C163.566 22.28 162.606 22.9067 161.753 24.16C160.899 25.3867 160.233 26.88 159.753 28.64C159.273 30.3733 159.033 31.9067 159.033 33.24C159.033 34.5733 159.219 35.4267 159.593 35.8C159.993 36.1733 160.473 36.36 161.033 36.36ZM177.368 20H183.128L182.608 22.48C183.515 21.68 184.328 21.0667 185.048 20.64C185.795 20.2133 186.595 20 187.448 20C188.302 20 188.968 20.2933 189.448 20.88C189.955 21.4667 190.208 22.1733 190.208 23C190.208 23.7733 189.955 24.4533 189.448 25.04C188.942 25.6267 188.235 25.92 187.328 25.92C186.742 25.92 186.342 25.7867 186.128 25.52C185.942 25.2267 185.795 24.8133 185.688 24.28C185.608 23.9333 185.528 23.68 185.448 23.52C185.368 23.36 185.222 23.28 185.008 23.28C184.448 23.28 183.968 23.4 183.568 23.64C183.195 23.8533 182.702 24.24 182.088 24.8L178.888 40H173.128L177.368 20ZM195.528 40.16C193.554 40.16 191.994 39.6533 190.848 38.64C189.701 37.6267 189.127 36.0267 189.127 33.84C189.127 32 189.487 29.9867 190.208 27.8C190.928 25.5867 192.101 23.68 193.728 22.08C195.354 20.4533 197.434 19.64 199.967 19.64C203.114 19.64 204.808 21.44 205.048 25.04C205.634 24.9067 206.154 24.5867 206.608 24.08C207.061 23.5467 207.488 22.9467 207.888 22.28H209.168C208.448 23.72 207.808 24.8533 207.248 25.68C206.688 26.48 205.954 27.1333 205.048 27.64C204.888 30.1467 204.368 32.3467 203.488 34.24C202.634 36.1333 201.514 37.6 200.128 38.64C198.741 39.6533 197.208 40.16 195.528 40.16ZM197.128 36.56C198.114 36.56 199.034 35.76 199.888 34.16C200.741 32.56 201.328 30.5867 201.648 28.24C201.008 28 200.688 27.4 200.688 26.44C200.688 25.4 201.061 24.7067 201.808 24.36C201.754 23.5067 201.608 22.92 201.368 22.6C201.154 22.2533 200.794 22.08 200.288 22.08C199.408 22.08 198.568 22.72 197.768 24C196.968 25.2533 196.314 26.7867 195.808 28.6C195.328 30.3867 195.088 31.96 195.088 33.32C195.088 34.6 195.234 35.4667 195.528 35.92C195.821 36.3467 196.354 36.56 197.128 36.56Z" fill="black"/>
<path d="M6.624 57.532C7.5 57.532 8.292 57.736 9 58.144C9.708 58.552 10.26 59.116 10.656 59.836C11.064 60.556 11.268 61.378 11.268 62.302C11.268 63.226 11.064 64.054 10.656 64.786C10.26 65.506 9.708 66.07 9 66.478C8.292 66.874 7.5 67.072 6.624 67.072C5.796 67.072 5.046 66.88 4.374 66.496C3.702 66.1 3.18 65.554 2.808 64.858V70.492H1.908V57.604H2.772V59.818C3.144 59.098 3.666 58.54 4.338 58.144C5.022 57.736 5.784 57.532 6.624 57.532ZM6.57 66.262C7.29 66.262 7.938 66.094 8.514 65.758C9.09 65.422 9.54 64.954 9.864 64.354C10.2 63.754 10.368 63.07 10.368 62.302C10.368 61.534 10.2 60.85 9.864 60.25C9.54 59.65 9.09 59.182 8.514 58.846C7.938 58.51 7.29 58.342 6.57 58.342C5.85 58.342 5.202 58.51 4.626 58.846C4.062 59.182 3.612 59.65 3.276 60.25C2.952 60.85 2.79 61.534 2.79 62.302C2.79 63.07 2.952 63.754 3.276 64.354C3.612 64.954 4.062 65.422 4.626 65.758C5.202 66.094 5.85 66.262 6.57 66.262ZM15.0085 59.656C15.2965 58.972 15.7465 58.45 16.3585 58.09C16.9705 57.718 17.7145 57.532 18.5905 57.532V58.414L18.3745 58.396C17.3305 58.396 16.5145 58.726 15.9265 59.386C15.3385 60.034 15.0445 60.94 15.0445 62.104V67H14.1445V57.604H15.0085V59.656ZM24.3283 57.532C25.4923 57.532 26.3863 57.832 27.0103 58.432C27.6343 59.02 27.9463 59.89 27.9463 61.042V67H27.0823V65.326C26.7823 65.878 26.3443 66.31 25.7683 66.622C25.1923 66.922 24.5023 67.072 23.6983 67.072C22.6543 67.072 21.8263 66.826 21.2143 66.334C20.6143 65.842 20.3143 65.194 20.3143 64.39C20.3143 63.61 20.5903 62.98 21.1423 62.5C21.7063 62.008 22.6003 61.762 23.8243 61.762H27.0463V61.006C27.0463 60.13 26.8063 59.464 26.3263 59.008C25.8583 58.552 25.1683 58.324 24.2563 58.324C23.6323 58.324 23.0323 58.432 22.4563 58.648C21.8923 58.864 21.4123 59.152 21.0163 59.512L20.5663 58.864C21.0343 58.444 21.5983 58.12 22.2583 57.892C22.9183 57.652 23.6083 57.532 24.3283 57.532ZM23.8243 66.334C24.6043 66.334 25.2643 66.154 25.8043 65.794C26.3563 65.434 26.7703 64.912 27.0463 64.228V62.464H23.8423C22.9183 62.464 22.2463 62.632 21.8263 62.968C21.4183 63.304 21.2143 63.766 21.2143 64.354C21.2143 64.966 21.4423 65.452 21.8983 65.812C22.3543 66.16 22.9963 66.334 23.8243 66.334ZM44.9966 57.604L41.4326 67H40.5866L37.4186 58.846L34.2326 67H33.4046L29.8406 57.604H30.7046L33.8366 65.992L37.0406 57.604H37.8146L41.0006 65.974L44.1686 57.604H44.9966ZM50.5884 67.072C49.7004 67.072 48.8964 66.868 48.1764 66.46C47.4684 66.052 46.9104 65.488 46.5024 64.768C46.0944 64.036 45.8904 63.214 45.8904 62.302C45.8904 61.39 46.0944 60.574 46.5024 59.854C46.9104 59.122 47.4684 58.552 48.1764 58.144C48.8964 57.736 49.7004 57.532 50.5884 57.532C51.4764 57.532 52.2744 57.736 52.9824 58.144C53.7024 58.552 54.2664 59.122 54.6744 59.854C55.0824 60.574 55.2864 61.39 55.2864 62.302C55.2864 63.214 55.0824 64.036 54.6744 64.768C54.2664 65.488 53.7024 66.052 52.9824 66.46C52.2744 66.868 51.4764 67.072 50.5884 67.072ZM50.5884 66.262C51.3084 66.262 51.9504 66.094 52.5144 65.758C53.0904 65.422 53.5404 64.954 53.8644 64.354C54.2004 63.754 54.3684 63.07 54.3684 62.302C54.3684 61.534 54.2004 60.85 53.8644 60.25C53.5404 59.65 53.0904 59.182 52.5144 58.846C51.9504 58.51 51.3084 58.342 50.5884 58.342C49.8684 58.342 49.2204 58.51 48.6444 58.846C48.0804 59.182 47.6304 59.65 47.2944 60.25C46.9704 60.85 46.8084 61.534 46.8084 62.302C46.8084 63.07 46.9704 63.754 47.2944 64.354C47.6304 64.954 48.0804 65.422 48.6444 65.758C49.2204 66.094 49.8684 66.262 50.5884 66.262ZM66.5536 67.072C65.6656 67.072 64.8616 66.868 64.1416 66.46C63.4336 66.052 62.8756 65.488 62.4676 64.768C62.0596 64.036 61.8556 63.214 61.8556 62.302C61.8556 61.39 62.0596 60.574 62.4676 59.854C62.8756 59.122 63.4336 58.552 64.1416 58.144C64.8616 57.736 65.6656 57.532 66.5536 57.532C67.4416 57.532 68.2396 57.736 68.9476 58.144C69.6676 58.552 70.2316 59.122 70.6396 59.854C71.0476 60.574 71.2516 61.39 71.2516 62.302C71.2516 63.214 71.0476 64.036 70.6396 64.768C70.2316 65.488 69.6676 66.052 68.9476 66.46C68.2396 66.868 67.4416 67.072 66.5536 67.072ZM66.5536 66.262C67.2736 66.262 67.9156 66.094 68.4796 65.758C69.0556 65.422 69.5056 64.954 69.8296 64.354C70.1656 63.754 70.3336 63.07 70.3336 62.302C70.3336 61.534 70.1656 60.85 69.8296 60.25C69.5056 59.65 69.0556 59.182 68.4796 58.846C67.9156 58.51 67.2736 58.342 66.5536 58.342C65.8336 58.342 65.1856 58.51 64.6096 58.846C64.0456 59.182 63.5956 59.65 63.2596 60.25C62.9356 60.85 62.7736 61.534 62.7736 62.302C62.7736 63.07 62.9356 63.754 63.2596 64.354C63.5956 64.954 64.0456 65.422 64.6096 65.758C65.1856 66.094 65.8336 66.262 66.5536 66.262ZM77.8597 67.072C76.9477 67.072 76.1317 66.868 75.4117 66.46C74.6917 66.052 74.1277 65.488 73.7197 64.768C73.3117 64.036 73.1077 63.214 73.1077 62.302C73.1077 61.378 73.3117 60.556 73.7197 59.836C74.1277 59.104 74.6917 58.54 75.4117 58.144C76.1317 57.736 76.9477 57.532 77.8597 57.532C78.6157 57.532 79.2997 57.682 79.9117 57.982C80.5357 58.27 81.0397 58.696 81.4237 59.26L80.7577 59.746C80.4217 59.278 80.0017 58.93 79.4977 58.702C79.0057 58.462 78.4597 58.342 77.8597 58.342C77.1277 58.342 76.4677 58.51 75.8797 58.846C75.3037 59.17 74.8477 59.632 74.5117 60.232C74.1877 60.832 74.0257 61.522 74.0257 62.302C74.0257 63.082 74.1877 63.772 74.5117 64.372C74.8477 64.972 75.3037 65.44 75.8797 65.776C76.4677 66.1 77.1277 66.262 77.8597 66.262C78.4597 66.262 79.0057 66.148 79.4977 65.92C80.0017 65.68 80.4217 65.326 80.7577 64.858L81.4237 65.344C81.0397 65.908 80.5357 66.34 79.9117 66.64C79.2997 66.928 78.6157 67.072 77.8597 67.072ZM88.6399 57.532C89.8159 57.532 90.7459 57.874 91.4299 58.558C92.1139 59.242 92.4559 60.226 92.4559 61.51V67H91.5559V61.582C91.5559 60.526 91.2859 59.722 90.7459 59.17C90.2179 58.618 89.4739 58.342 88.5139 58.342C87.4099 58.342 86.5399 58.672 85.9039 59.332C85.2679 59.992 84.9499 60.88 84.9499 61.996V67H84.0499V53.644H84.9499V59.566C85.2739 58.918 85.7539 58.42 86.3899 58.072C87.0259 57.712 87.7759 57.532 88.6399 57.532ZM97.1152 59.656C97.4032 58.972 97.8532 58.45 98.4652 58.09C99.0772 57.718 99.8212 57.532 100.697 57.532V58.414L100.481 58.396C99.4372 58.396 98.6212 58.726 98.0332 59.386C97.4452 60.034 97.1512 60.94 97.1512 62.104V67H96.2512V57.604H97.1152V59.656ZM106.851 67.072C105.963 67.072 105.159 66.868 104.439 66.46C103.731 66.052 103.173 65.488 102.765 64.768C102.357 64.036 102.153 63.214 102.153 62.302C102.153 61.39 102.357 60.574 102.765 59.854C103.173 59.122 103.731 58.552 104.439 58.144C105.159 57.736 105.963 57.532 106.851 57.532C107.739 57.532 108.537 57.736 109.245 58.144C109.965 58.552 110.529 59.122 110.937 59.854C111.345 60.574 111.549 61.39 111.549 62.302C111.549 63.214 111.345 64.036 110.937 64.768C110.529 65.488 109.965 66.052 109.245 66.46C108.537 66.868 107.739 67.072 106.851 67.072ZM106.851 66.262C107.571 66.262 108.213 66.094 108.777 65.758C109.353 65.422 109.803 64.954 110.127 64.354C110.463 63.754 110.631 63.07 110.631 62.302C110.631 61.534 110.463 60.85 110.127 60.25C109.803 59.65 109.353 59.182 108.777 58.846C108.213 58.51 107.571 58.342 106.851 58.342C106.131 58.342 105.483 58.51 104.907 58.846C104.343 59.182 103.893 59.65 103.557 60.25C103.233 60.85 103.071 61.534 103.071 62.302C103.071 63.07 103.233 63.754 103.557 64.354C103.893 64.954 104.343 65.422 104.907 65.758C105.483 66.094 106.131 66.262 106.851 66.262ZM119.021 57.532C120.197 57.532 121.127 57.874 121.811 58.558C122.495 59.242 122.837 60.226 122.837 61.51V67H121.937V61.582C121.937 60.526 121.667 59.722 121.127 59.17C120.599 58.618 119.855 58.342 118.895 58.342C117.791 58.342 116.921 58.672 116.285 59.332C115.649 59.992 115.331 60.88 115.331 61.996V67H114.431V57.604H115.295V59.638C115.619 58.978 116.099 58.462 116.735 58.09C117.383 57.718 118.145 57.532 119.021 57.532ZM133.999 57.604L129.175 68.278C128.815 69.106 128.395 69.694 127.915 70.042C127.447 70.39 126.889 70.564 126.241 70.564C125.809 70.564 125.401 70.492 125.017 70.348C124.645 70.204 124.327 69.994 124.063 69.718L124.513 69.034C124.993 69.526 125.575 69.772 126.259 69.772C126.715 69.772 127.105 69.646 127.429 69.394C127.753 69.142 128.053 68.71 128.329 68.098L128.833 66.964L124.603 57.604H125.557L129.319 66.01L133.081 57.604H133.999ZM147.124 66.226V67H139.654V66.388L145.846 58.378H139.744V57.604H147.016V58.216L140.806 66.226H147.124ZM158.106 53.644V67H157.224V64.786C156.852 65.518 156.33 66.082 155.658 66.478C154.986 66.874 154.224 67.072 153.372 67.072C152.496 67.072 151.704 66.868 150.996 66.46C150.288 66.052 149.73 65.488 149.322 64.768C148.926 64.048 148.728 63.226 148.728 62.302C148.728 61.378 148.926 60.556 149.322 59.836C149.73 59.104 150.288 58.54 150.996 58.144C151.704 57.736 152.496 57.532 153.372 57.532C154.212 57.532 154.962 57.73 155.622 58.126C156.294 58.522 156.822 59.074 157.206 59.782V53.644H158.106ZM153.426 66.262C154.146 66.262 154.788 66.094 155.352 65.758C155.928 65.422 156.378 64.954 156.702 64.354C157.038 63.754 157.206 63.07 157.206 62.302C157.206 61.534 157.038 60.85 156.702 60.25C156.378 59.65 155.928 59.182 155.352 58.846C154.788 58.51 154.146 58.342 153.426 58.342C152.706 58.342 152.058 58.51 151.482 58.846C150.918 59.182 150.468 59.65 150.132 60.25C149.808 60.85 149.646 61.534 149.646 62.302C149.646 63.07 149.808 63.754 150.132 64.354C150.468 64.954 150.918 65.422 151.482 65.758C152.058 66.094 152.706 66.262 153.426 66.262ZM162.855 59.656C163.143 58.972 163.593 58.45 164.205 58.09C164.817 57.718 165.561 57.532 166.437 57.532V58.414L166.221 58.396C165.177 58.396 164.361 58.726 163.773 59.386C163.185 60.034 162.891 60.94 162.891 62.104V67H161.991V57.604H162.855V59.656ZM172.59 67.072C171.702 67.072 170.898 66.868 170.178 66.46C169.47 66.052 168.912 65.488 168.504 64.768C168.096 64.036 167.892 63.214 167.892 62.302C167.892 61.39 168.096 60.574 168.504 59.854C168.912 59.122 169.47 58.552 170.178 58.144C170.898 57.736 171.702 57.532 172.59 57.532C173.478 57.532 174.276 57.736 174.984 58.144C175.704 58.552 176.268 59.122 176.676 59.854C177.084 60.574 177.288 61.39 177.288 62.302C177.288 63.214 177.084 64.036 176.676 64.768C176.268 65.488 175.704 66.052 174.984 66.46C174.276 66.868 173.478 67.072 172.59 67.072ZM172.59 66.262C173.31 66.262 173.952 66.094 174.516 65.758C175.092 65.422 175.542 64.954 175.866 64.354C176.202 63.754 176.37 63.07 176.37 62.302C176.37 61.534 176.202 60.85 175.866 60.25C175.542 59.65 175.092 59.182 174.516 58.846C173.952 58.51 173.31 58.342 172.59 58.342C171.87 58.342 171.222 58.51 170.646 58.846C170.082 59.182 169.632 59.65 169.296 60.25C168.972 60.85 168.81 61.534 168.81 62.302C168.81 63.07 168.972 63.754 169.296 64.354C169.632 64.954 170.082 65.422 170.646 65.758C171.222 66.094 171.87 66.262 172.59 66.262ZM193.335 57.604L189.771 67H188.925L185.757 58.846L182.571 67H181.743L178.179 57.604H179.043L182.175 65.992L185.379 57.604H186.153L189.339 65.974L192.507 57.604H193.335ZM195.518 57.604H196.418V67H195.518V57.604ZM195.968 55.318C195.764 55.318 195.59 55.252 195.446 55.12C195.302 54.976 195.23 54.802 195.23 54.598C195.23 54.394 195.302 54.22 195.446 54.076C195.59 53.932 195.764 53.86 195.968 53.86C196.172 53.86 196.346 53.932 196.49 54.076C196.634 54.208 196.706 54.376 196.706 54.58C196.706 54.784 196.634 54.958 196.49 55.102C196.346 55.246 196.172 55.318 195.968 55.318ZM203.47 57.532C204.634 57.532 205.528 57.832 206.152 58.432C206.776 59.02 207.088 59.89 207.088 61.042V67H206.224V65.326C205.924 65.878 205.486 66.31 204.91 66.622C204.334 66.922 203.644 67.072 202.84 67.072C201.796 67.072 200.968 66.826 200.356 66.334C199.756 65.842 199.456 65.194 199.456 64.39C199.456 63.61 199.732 62.98 200.284 62.5C200.848 62.008 201.742 61.762 202.966 61.762H206.188V61.006C206.188 60.13 205.948 59.464 205.468 59.008C205 58.552 204.31 58.324 203.398 58.324C202.774 58.324 202.174 58.432 201.598 58.648C201.034 58.864 200.554 59.152 200.158 59.512L199.708 58.864C200.176 58.444 200.74 58.12 201.4 57.892C202.06 57.652 202.75 57.532 203.47 57.532ZM202.966 66.334C203.746 66.334 204.406 66.154 204.946 65.794C205.498 65.434 205.912 64.912 206.188 64.228V62.464H202.984C202.06 62.464 201.388 62.632 200.968 62.968C200.56 63.304 200.356 63.766 200.356 64.354C200.356 64.966 200.584 65.452 201.04 65.812C201.496 66.16 202.138 66.334 202.966 66.334Z" fill="black"/>
</svg>
